<svg width="9" height="7" viewBox="0 0 9 7" fill="none" xmlns="http://www.w3.org/2000/svg">
<path id="Vector" d="M2.21409 5.79409C2.30705 5.88782 2.41766 5.96221 2.53952 6.01298C2.66137 6.06375 2.79208 6.08989 2.92409 6.08989C3.0561 6.08989 3.18681 6.06375 3.30867 6.01298C3.43053 5.96221 3.54113 5.88782 3.63409 5.79409L7.71409 1.71409C7.9024 1.52579 8.00818 1.27039 8.00818 1.00409C8.00818 0.73779 7.9024 0.482395 7.71409 0.294091C7.52579 0.105788 7.27039 0 7.00409 0C6.73779 0 6.4824 0.105788 6.29409 0.294091L2.92409 3.67409L1.71409 2.45409C1.52579 2.26579 1.27039 2.16 1.00409 2.16C0.73779 2.16 0.482395 2.26579 0.294092 2.45409C0.105788 2.64239 0 2.89779 0 3.16409C0 3.43039 0.105788 3.68579 0.294092 3.87409L2.21409 5.79409Z" fill="#581c87"/>
</svg>
